<?xml version="1.0" standalone="no"?>
<!DOCTYPE svg PUBLIC "-//W3C//DTD SVG 20010904//EN"
 "http://www.w3.org/TR/2001/REC-SVG-20010904/DTD/svg10.dtd">
<svg version="1.0" xmlns="http://www.w3.org/2000/svg"
 width="1024.000000pt" height="1024.000000pt" viewBox="0 0 1024.000000 1024.000000"
 preserveAspectRatio="xMidYMid meet">
<metadata>
Created by potrace 1.11, written by Peter Selinger 2001-2013
</metadata>
<g transform="translate(0.000000,1024.000000) scale(0.100000,-0.100000)"
fill="#000000" stroke="none">
<path d="M4849 10096 c-2 -2 -53 -6 -114 -10 -60 -4 -118 -9 -130 -11 -11 -2
-45 -7 -75 -10 -30 -3 -82 -10 -115 -15 -33 -5 -80 -12 -105 -15 -25 -4 -79
-13 -120 -22 -41 -8 -88 -17 -103 -20 -72 -12 -386 -96 -512 -138 -502 -166
-981 -413 -1395 -719 -99 -73 -213 -162 -265 -207 -225 -195 -422 -392 -579
-579 -48 -58 -97 -116 -108 -128 -95 -114 -408 -572 -408 -598 0 -2 -12 -23
-26 -46 -52 -82 -222 -435 -279 -578 -31 -80 -61 -154 -66 -165 -50 -111 -175
-563 -204 -737 -3 -18 -8 -40 -10 -48 -5 -18 -42 -255 -50 -325 -3 -27 -8 -63
-10 -80 -27 -205 -28 -795 -1 -1030 2 -11 6 -49 10 -85 9 -79 10 -84 36 -240
102 -623 341 -1254 679 -1792 76 -122 249 -373 276 -402 5 -6 45 -54 87 -108
42 -53 97 -118 122 -145 24 -26 54 -59 66 -73 59 -69 263 -270 391 -386 60
-54 291 -238 364 -289 39 -27 72 -52 75 -55 15 -17 279 -181 407 -253 551
-309 1170 -517 1768 -593 33 -5 62 -9 65 -9 3 -1 44 -5 92 -9 61 -6 86 -12 81
-20 -5 -8 -3 -8 8 0 8 6 23 10 34 7 11 -2 41 -4 67 -5 31 0 46 -4 41 -11 -4
-6 -1 -7 8 -2 18 11 49 14 49 4 0 -4 8 -5 18 -3 9 2 143 6 297 9 154 2 298 6
320 8 22 3 69 8 105 11 148 15 207 23 220 31 5 3 11 -1 13 -7 4 -10 6 -9 6 1
1 11 4 11 18 0 10 -8 14 -9 10 -2 -5 8 7 14 40 19 56 8 55 8 156 29 42 9 81
13 86 10 5 -3 11 -1 13 5 1 5 19 12 38 14 19 3 35 5 35 6 0 1 7 3 15 5 8 1 44
10 79 20 35 9 70 14 78 11 8 -3 11 -1 8 4 -3 6 1 11 9 11 19 2 24 3 51 13 33
13 68 24 100 32 35 9 31 7 75 21 19 6 83 29 143 51 59 22 107 37 107 33 0 -3
4 0 9 7 5 8 20 15 34 15 14 1 23 6 19 11 -3 5 5 7 16 4 12 -4 20 -2 17 2 -7
12 32 23 46 14 7 -4 9 -3 6 3 -4 6 8 16 26 23 62 25 402 193 405 202 2 4 7 8
12 8 8 0 132 70 229 131 34 21 65 39 67 39 3 0 10 5 17 10 39 33 91 70 98 70
4 0 21 12 38 26 17 14 36 22 42 18 7 -4 9 -3 5 4 -3 6 10 21 31 33 21 13 45
31 56 42 10 10 22 15 28 12 5 -4 8 -2 7 2 -2 5 23 30 55 56 31 26 57 46 57 44
0 -2 23 18 52 44 29 26 56 45 60 43 4 -3 8 2 8 10 0 9 4 16 8 16 4 0 27 18 51
40 23 22 47 37 52 34 5 -3 8 -1 7 4 -2 5 60 72 137 149 145 145 200 205 305
333 34 41 79 94 100 118 21 23 36 42 34 42 -3 0 25 39 62 88 36 48 70 86 75
85 4 -2 6 3 3 10 -2 7 6 25 20 40 14 15 23 27 20 27 -3 0 8 19 24 43 125 182
296 493 393 717 68 155 75 173 96 230 12 30 29 75 38 100 53 137 165 530 189
660 2 14 9 45 14 70 6 25 13 63 16 85 4 23 8 50 10 62 3 12 8 43 12 70 3 26 8
56 10 65 1 9 6 48 9 85 4 37 9 76 11 86 26 139 26 857 0 1017 -2 14 -7 57 -11
95 -4 39 -8 77 -10 85 -2 8 -6 35 -9 60 -8 56 -13 86 -31 180 -8 41 -16 86
-19 100 -30 173 -144 553 -232 780 -296 757 -764 1418 -1384 1958 -36 32 -70
62 -76 67 -6 6 -25 21 -43 35 -19 14 -47 37 -65 51 -119 98 -518 369 -544 369
-7 0 -12 5 -12 10 0 6 -4 10 -10 10 -5 0 -33 14 -62 31 -154 92 -472 240 -688
321 -317 120 -568 187 -920 248 -164 28 -207 34 -330 45 -36 4 -76 9 -90 12
-30 6 -685 15 -691 9z"/>
</g>
</svg>
